<?xml version="1.0" encoding="UTF-8"?>
<!DOCTYPE svg PUBLIC "-//W3C//DTD SVG 1.1//EN" "http://www.w3.org/Graphics/SVG/1.1/DTD/svg11.dtd">
<svg xmlns="http://www.w3.org/2000/svg" version="1.1" width="200px" height="62px" viewBox="0 0 1500 463" style="shape-rendering:geometricPrecision; text-rendering:geometricPrecision; image-rendering:optimizeQuality; fill-rule:evenodd; clip-rule:evenodd" xmlns:xlink="http://www.w3.org/1999/xlink">
<g><path style="opacity:0.975" fill="#fefffe" d="M 215.5,20.5 C 233.317,18.8165 241.15,26.8165 239,44.5C 236.598,60.4777 234.432,76.4777 232.5,92.5C 185.778,92.3485 139.111,92.5152 92.5,93C 133.409,68.5714 174.409,44.4047 215.5,20.5 Z"/></g>
<g><path style="opacity:0.993" fill="#fefffe" d="M 93.5,102.5 C 165.501,102.333 237.501,102.5 309.5,103C 369.206,112.04 404.706,146.206 416,205.5C 416.957,238.867 416.624,272.201 415,305.5C 404.78,350.715 377.946,381.215 334.5,397C 326.003,399.566 317.336,401.233 308.5,402C 237.167,402.667 165.833,402.667 94.5,402C 85.1819,400.014 79.0152,394.514 76,385.5C 75.3333,296.833 75.3333,208.167 76,119.5C 79.0839,110.915 84.9172,105.248 93.5,102.5 Z M 147.5,203.5 C 150.941,203.301 154.274,203.801 157.5,205C 182.5,216.5 207.5,228 232.5,239.5C 243.159,220.501 258.825,214.334 279.5,221C 297.894,231.844 303.394,247.344 296,267.5C 284.252,285.638 268.419,290.471 248.5,282C 242.979,277.979 238.312,273.146 234.5,267.5C 208.833,278.333 183.167,289.167 157.5,300C 150.988,302.893 145.821,301.393 142,295.5C 141.333,266.833 141.333,238.167 142,209.5C 143.36,206.977 145.193,204.977 147.5,203.5 Z"/></g>
<g><path style="opacity:0.978" fill="#fefffe" d="M 1207.5,121.5 C 1219.45,121.285 1231.11,122.951 1242.5,126.5C 1243.5,136.478 1243.83,146.478 1243.5,156.5C 1235.45,156.225 1227.45,156.725 1219.5,158C 1214.45,159.717 1211.62,163.217 1211,168.5C 1210.5,176.827 1210.33,185.16 1210.5,193.5C 1234.84,193.333 1259.17,193.5 1283.5,194C 1285.96,195.458 1288.13,197.291 1290,199.5C 1301.94,229.055 1313.61,258.721 1325,288.5C 1329.54,303.107 1333.87,317.774 1338,332.5C 1351.46,286.294 1365.62,240.294 1380.5,194.5C 1394.82,193.501 1409.15,193.167 1423.5,193.5C 1402.84,254.635 1381.68,315.635 1360,376.5C 1352.74,396.877 1341.57,414.71 1326.5,430C 1317.82,436.167 1308.16,439.833 1297.5,441C 1284.57,442.338 1271.91,441.171 1259.5,437.5C 1258.5,427.522 1258.17,417.522 1258.5,407.5C 1267.17,407.666 1275.84,407.5 1284.5,407C 1293.38,405.783 1300.55,401.616 1306,394.5C 1309.36,389.112 1312.19,383.446 1314.5,377.5C 1294.97,328.246 1275.64,278.912 1256.5,229.5C 1241.18,228.501 1225.85,228.167 1210.5,228.5C 1210.5,278.167 1210.5,327.833 1210.5,377.5C 1196.17,377.5 1181.83,377.5 1167.5,377.5C 1167.5,327.833 1167.5,278.167 1167.5,228.5C 1158.83,228.5 1150.17,228.5 1141.5,228.5C 1141.5,216.833 1141.5,205.167 1141.5,193.5C 1150.17,193.5 1158.83,193.5 1167.5,193.5C 1167.19,181.128 1167.69,168.795 1169,156.5C 1173.21,135.119 1186.04,123.452 1207.5,121.5 Z"/></g>
<g><path style="opacity:0.981" fill="#fefffe" d="M 525.5,137.5 C 559.835,137.333 594.168,137.5 628.5,138C 684.642,141.815 717.809,171.315 728,226.5C 733.092,258.651 730.092,289.984 719,320.5C 700.829,355.287 671.996,374.121 632.5,377C 596.5,377.667 560.5,377.667 524.5,377C 522.376,375.878 520.543,374.378 519,372.5C 517.34,296.915 517.006,221.248 518,145.5C 519.353,141.65 521.853,138.983 525.5,137.5 Z M 563.5,176.5 C 583.503,176.333 603.503,176.5 623.5,177C 657.837,181.003 677.337,200.17 682,234.5C 684.91,255.793 683.577,276.793 678,297.5C 669.082,321.388 651.915,334.888 626.5,338C 605.503,338.5 584.503,338.667 563.5,338.5C 563.5,284.5 563.5,230.5 563.5,176.5 Z"/></g>
<g><path style="opacity:0.976" fill="#fefffe" d="M 817.5,189.5 C 828.838,189.333 840.172,189.5 851.5,190C 870.327,190.999 885.827,198.499 898,212.5C 904.126,221.545 907.46,231.545 908,242.5C 908.333,275.167 908.667,307.833 909,340.5C 910.251,343.381 912.417,345.214 915.5,346C 920.823,346.499 926.156,346.666 931.5,346.5C 931.666,356.506 931.5,366.506 931,376.5C 919.641,381.189 907.807,382.689 895.5,381C 881.933,377.881 872.933,369.714 868.5,356.5C 852.922,374.116 833.256,382.782 809.5,382.5C 790.635,382.714 774.135,376.714 760,364.5C 755.096,358.353 752.096,351.353 751,343.5C 746.383,320.689 752.55,301.522 769.5,286C 788.87,274.57 809.87,268.237 832.5,267C 843.479,265.992 854.479,265.492 865.5,265.5C 866.011,256.025 865.178,246.691 863,237.5C 860.014,231.18 855.181,227.013 848.5,225C 837.09,222.804 825.757,223.137 814.5,226C 804.728,230.281 800.062,237.781 800.5,248.5C 786.833,248.5 773.167,248.5 759.5,248.5C 757.006,224.978 766.34,208.145 787.5,198C 797.276,193.894 807.276,191.06 817.5,189.5 Z M 844.5,296.5 C 851.5,296.5 858.5,296.5 865.5,296.5C 865.502,334.837 846.502,351.337 808.5,346C 796.216,340.879 791.716,331.712 795,318.5C 799.93,308.92 807.763,303.087 818.5,301C 827.255,299.153 835.921,297.653 844.5,296.5 Z"/></g>
<g><path style="opacity:0.979" fill="#fefffe" d="M 1036.5,189.5 C 1085.44,185.713 1113.61,208.046 1121,256.5C 1125.05,284.289 1123.05,311.623 1115,338.5C 1098.45,374.525 1070.62,388.358 1031.5,380C 1016.45,376.943 1004.62,369.109 996,356.5C 995.5,383.831 995.333,411.165 995.5,438.5C 981.167,438.5 966.833,438.5 952.5,438.5C 952.5,356.833 952.5,275.167 952.5,193.5C 963.245,193.071 973.912,193.571 984.5,195C 986.617,196.731 988.117,198.898 989,201.5C 989.569,207.009 990.736,212.343 992.5,217.5C 1003.33,202.088 1018,192.754 1036.5,189.5 Z M 1027.5,226.5 C 1059.05,222.886 1075.88,236.886 1078,268.5C 1078.67,280.167 1078.67,291.833 1078,303.5C 1073.57,338.975 1054.07,351.808 1019.5,342C 1007.88,335.944 1000.71,326.444 998,313.5C 995.586,298.928 994.919,284.261 996,269.5C 996.692,255.063 1002.19,242.897 1012.5,233C 1017.29,230.133 1022.29,227.967 1027.5,226.5 Z"/></g>
<g><path style="opacity:0.973" fill="#fefffe" d="M 260.5,239.5 C 274.937,238.099 280.77,244.432 278,258.5C 272.58,265.926 265.746,267.426 257.5,263C 250.287,254.11 251.287,246.276 260.5,239.5 Z"/></g>
</svg>
